<svg data-v-423bf9ae="" xmlns="http://www.w3.org/2000/svg" viewBox="0 0 227.14284337991904 60" class="font"><!----><!----><!----><g data-v-423bf9ae="" id="d1ee8520-0492-49d9-8f29-7c96d7f4e6d0" fill="#000000" transform="matrix(6.1224488604322,0,0,6.1224488604322,-1.653064632790759,-25.71428452288795)"><path d="M0.50 14L0.50 14Q0.27 14 0.27 13.80L0.27 13.80L0.29 13.69L4.17 4.41L4.17 4.41Q4.26 4.20 4.48 4.20L4.48 4.20L6.54 4.20L6.54 4.20Q6.78 4.20 6.78 4.40L6.78 4.40L6.75 4.51L2.88 13.79L2.88 13.79Q2.80 14 2.58 14L2.58 14L0.50 14ZM7.55 14L7.55 14Q7.31 14 7.31 13.80L7.31 13.80L7.34 13.69L11.21 4.41L11.21 4.41Q11.30 4.20 11.52 4.20L11.52 4.20L13.58 4.20L13.58 4.20Q13.82 4.20 13.82 4.40L13.82 4.40L13.79 4.51L9.93 13.79L9.93 13.79Q9.84 14 9.62 14L9.62 14L7.55 14ZM14.60 14L14.60 14Q14.34 14 14.34 13.73L14.34 13.73L14.34 11.94L14.34 11.94Q14.34 11.76 14.41 11.62L14.41 11.62L17.78 4.40L17.78 4.40Q17.86 4.20 18.10 4.20L18.10 4.20L19.52 4.20L19.52 4.20Q19.75 4.20 19.84 4.40L19.84 4.40L23.23 11.63L23.23 11.63Q23.30 11.77 23.30 11.96L23.30 11.96L23.30 13.73L23.30 13.73Q23.30 14 23.03 14L23.03 14L14.60 14ZM16.95 11.62L16.94 11.68L16.94 11.68Q16.94 11.75 17.04 11.75L17.04 11.75L20.59 11.75L20.59 11.75Q20.65 11.75 20.68 11.71L20.68 11.71L20.68 11.71Q20.71 11.68 20.68 11.62L20.68 11.62L18.89 7.73L18.89 7.73Q18.86 7.66 18.82 7.66L18.82 7.66L18.82 7.66Q18.77 7.66 18.75 7.73L18.75 7.73L16.95 11.62ZM30.30 13.69L30.32 13.80L30.32 13.80Q30.32 14 30.09 14L30.09 14L28.01 14L28.01 14Q27.79 14 27.71 13.79L27.71 13.79L23.84 4.51L23.81 4.40L23.81 4.40Q23.81 4.20 24.05 4.20L24.05 4.20L26.11 4.20L26.11 4.20Q26.33 4.20 26.42 4.41L26.42 4.41L30.30 13.69ZM37.34 13.69L37.37 13.80L37.37 13.80Q37.37 14 37.13 14L37.13 14L35.06 14L35.06 14Q34.83 14 34.75 13.79L34.75 13.79L30.88 4.51L30.86 4.40L30.86 4.40Q30.86 4.20 31.09 4.20L31.09 4.20L33.15 4.20L33.15 4.20Q33.38 4.20 33.46 4.41L33.46 4.41L37.34 13.69Z"></path></g><!----><!----></svg>